<?xml version="1.0" standalone="no"?><!DOCTYPE svg PUBLIC "-//W3C//DTD SVG 1.1//EN" "http://www.w3.org/Graphics/SVG/1.1/DTD/svg11.dtd"><svg t="1710314007901" class="icon" viewBox="0 0 1024 1024" version="1.1" xmlns="http://www.w3.org/2000/svg" p-id="31541" xmlns:xlink="http://www.w3.org/1999/xlink" width="200" height="200"><path d="M915.88096 454.74816c3.92192-5.41184 6.70208-10.73664 8.56576-15.9488l-147.16928 202.01472s-6.49216 6.8352-10.55232 8.3712c-9.61536 3.64032-28.60544 9.1136-47.44192 4.78208-13.07648-3.01056-25.216-16.55808-30.46912-23.14752-1.75104-2.19648-2.73408-12.09344-2.73408-12.09344V404.48h-117.76s-20.48-1.92-25.6-19.2 1.92-28.16 1.92-28.16l120.71936-158.02368c-30.0032-8.86272-61.07136 3.0976-61.07136 3.0976-86.11328-56.12032-141.27616 0.9728-141.27616 0.9728-89.02656-44.51328-130.6368 31.9488-130.6368 31.9488-111.27808-24.192-139.3408 57.12384-139.3408 57.12384-75.47904 5.80608-63.86688 61.02016-63.86688 61.02016-54.19008 28.06272-70.64064 78.50496-70.64064 78.50496-32.90112 113.21344 46.44864 121.20064 46.44864 121.20064-27.09504 98.21696 189.53728 95.21664 189.53728 95.21664-3.74784 123.1616 98.82624 118.48704 98.82624 118.48704 86.12352 9.67168 106.63936 80.64512 106.63936 80.64512l44.3136 125.4912h41.61024l23.22944-98.88256c58.05568 79.34976 121.92256 42.39872 121.92256 42.39872 49.34656-19.34848 62.89408-102.57408 62.89408-102.57408 134.5024 41.61536 114.18624-99.66592 114.18624-99.66592 59.02336-19.3536 60.96384-105.47712 60.96384-105.47712 3.87072-108.38016-53.21728-153.856-53.21728-153.856z" fill="#4D8DFF" p-id="31542"></path><path d="M969.2928 301.88544h-141.01504V51.2L593.2544 364.5696h141.01504v250.68032l235.02336-313.36448z" fill="#AECDFF" p-id="31543"></path></svg>