<?xml version="1.0" standalone="no"?><!DOCTYPE svg PUBLIC "-//W3C//DTD SVG 1.1//EN" "http://www.w3.org/Graphics/SVG/1.1/DTD/svg11.dtd"><svg t="1709688074325" class="icon" viewBox="0 0 1024 1024" version="1.1" xmlns="http://www.w3.org/2000/svg" p-id="8624" xmlns:xlink="http://www.w3.org/1999/xlink" width="200" height="200"><path d="M80 80m432 0l0 0q432 0 432 432l0 0q0 432-432 432l0 0q-432 0-432-432l0 0q0-432 432-432Z" fill="#0E9D99" p-id="8625"></path><path d="M313.568 307.904c12.16 24.96 56.832 109.888 139.36 198.912l42.336-26.304L313.92 304.416l-0.384 3.52z m400.96 386.816l1.184-0.128-194.688-189.056-34.432 35.648c59.456 57.44 134.976 113.6 227.936 153.536zM355.52 627.008C270.56 523.36 302.4 304.448 302.4 304.448c0-7.744 3.84-11.616 7.712-11.616 3.84 0 7.744 0 11.584 3.872l180.992 179.2 89.44-55.584a40.64 40.64 0 0 1 0-50.24 37.344 37.344 0 0 1 54.08 0 37.344 37.344 0 0 1 0 54.08c-15.456 15.488-34.784 15.488-50.24 3.872l-69.248 71.68 192.896 191.04c11.584 7.712 7.712 15.424-3.872 15.424 0 0-42.496 3.872-96.576 3.872-81.12 0-193.152-11.584-251.104-69.536a154.816 154.816 0 0 1-12.48-13.504z m105.184 129.408c3.872 3.84 0 11.584-7.712 11.584H263.68C256 768 256 760.288 256 756.416l61.824-127.488c0-3.84 7.712-7.712 11.584-3.84 38.624 50.208 96.576 69.504 96.576 69.504 7.712 3.872 11.584 7.744 15.456 15.456l19.296 46.368z m245.856-343.744l-17.728-5.44a68.064 68.064 0 0 0-75.072-85.664l-3.52-18.24a86.528 86.528 0 0 1 96.32 109.312z m-75.104 83.648a120.512 120.512 0 0 1-5.44-0.736l6.016-1.184-0.576 1.92z m121.888-66.944l-15.008-4.608a105.088 105.088 0 0 0-133.696-145.28l-3.008-15.456a120.544 120.544 0 0 1 151.68 165.344z" fill="#FFFFFF" p-id="8626"></path></svg>