<?xml version="1.0" standalone="no"?><!DOCTYPE svg PUBLIC "-//W3C//DTD SVG 1.1//EN" "http://www.w3.org/Graphics/SVG/1.1/DTD/svg11.dtd"><svg t="1710313836248" class="icon" viewBox="0 0 1024 1024" version="1.1" xmlns="http://www.w3.org/2000/svg" p-id="23092" xmlns:xlink="http://www.w3.org/1999/xlink" width="200" height="200"><path d="M511.076721 514.350164m-285.377049 0a285.377049 285.377049 0 1 0 570.754098 0 285.377049 285.377049 0 1 0-570.754098 0Z" fill="#3EBBDD" p-id="23093"></path><path d="M226.539016 497.563279a284.554492 284.554492 0 0 1 100.822033-201.442623h133.690754a33.238033 33.238033 0 0 1 33.238033 33.238033v0.671475a33.238033 33.238033 0 0 1-33.238033 33.238033h-34.245246a33.238033 33.238033 0 0 0-33.238032 33.238033v0.671475a33.238033 33.238033 0 0 0 33.238032 33.238033h84.605902a33.238033 33.238033 0 0 1 33.238033 33.238032v0.671476a33.238033 33.238033 0 0 1-33.238033 33.238033h-284.873443z" fill="#FFFFFF" p-id="23094"></path><path d="M388.532459 933.367607C246.985443 892.038295 133.38859 778.441443 92.059279 636.894426l32.230819-9.417442c38.139803 130.635541 143.007475 235.486426 273.643017 273.643016l-9.400656 32.247607zM615.91082 938.135082l-8.040918-32.583344c120.479475-29.712787 222.275148-115.476984 272.300065-229.409574l30.736787 13.496656c-54.171279 123.400393-164.461115 216.315803-294.995934 248.496262zM886.347541 367.481705c-45.240656-115.527344-143.276066-205.236459-262.211148-239.934951l9.417443-32.23082c128.856131 37.602623 235.03318 134.765115 284.050885 259.911345l-31.25718 12.254426zM124.290098 401.240131l-32.230819-9.417442c41.329311-141.547016 154.926164-255.160656 296.47318-296.489968l9.417443 32.23082c-130.669115 38.15659-235.536787 143.024262-273.659804 273.67659zM326.420984 480.776393h33.57377v33.573771h-33.57377z" fill="#000000" p-id="23095"></path><path d="M795.614426 497.563279h-133.791475a33.238033 33.238033 0 0 0-33.238033 33.238032v0.671476a33.238033 33.238033 0 0 0 33.238033 33.238033h0.671475a33.238033 33.238033 0 0 1 33.238033 33.238032v0.671476a33.238033 33.238033 0 0 1-33.238033 33.238033h-134.630819a33.238033 33.238033 0 0 0-33.238033 33.238032v0.671476a33.238033 33.238033 0 0 0 33.238033 33.238033h200.586491a284.067672 284.067672 0 0 0 68.003672-184.655738c0-5.673967-0.520393-11.196852-0.839344-16.786885z" fill="#FFFFFF" p-id="23096"></path><path d="M750.776656 697.595803c2.85377-3.743475 5.774689-7.43659 8.443803-11.280787 2.786623-4.012066 5.33823-8.175213 7.92341-12.321573 2.26623-3.642754 4.566033-7.251934 6.664393-10.961836 2.568393-4.515672 4.918557-9.132066 7.251935-13.782033 1.77941-3.55882 3.542033-7.117639 5.17036-10.72682a308.71082 308.71082 0 0 0 15.074623-40.976787c1.175082-4.112787 2.199082-8.259148 3.206295-12.422295 1.158295-4.801049 2.333377-9.585311 3.256656-14.470295 0.990426-5.203934 1.678689-10.441443 2.400525-15.695738 0.53718-3.995279 1.225443-7.940197 1.611541-11.985836 0.906492-9.48459 1.443672-19.036328 1.443672-28.621639 0-4.465311-0.285377-8.846689-0.587541-13.228066l-0.637902-10.77718c-0.201443-2.467672-0.184656-4.985705-0.436459-7.43659l-0.117508-2.131935h-0.201443c-16.770098-150.863738-144.92118-268.590164-300.183082-268.590163a300.602754 300.602754 0 0 0-189.507147 67.14754h-0.335738l-4.683541 3.944919c-2.618754 2.199082-4.935344 4.700328-7.470164 6.983344-4.549246 4.112787-9.132066 8.175213-13.429508 12.55659-2.434098 2.484459-4.649967 5.12-6.983344 7.671607a304.681967 304.681967 0 0 0-13.496656 15.511081c-1.443672 1.812984-2.753049 3.709902-4.163147 5.556459-4.952131 6.479738-9.686033 13.110557-14.100984 19.976394-0.570754 0.906492-1.107934 1.82977-1.661902 2.736262-5.019279 7.97377-9.652459 16.182557-13.916328 24.643148l-0.033573 0.05036a299.528393 299.528393 0 0 0-31.47541 117.088525c-0.016787 0.167869-0.050361 0.335738-0.050361 0.520393l-1.040787 17.760525h0.167869c0 166.609836 135.554098 302.163934 302.163935 302.163934 89.188721 0 169.22859-39.063082 224.57495-100.721311h0.553968l5.019278-5.908984c0.419672-0.48682 0.772197-1.040787 1.191869-1.527606 2.954492-3.458098 5.623607-7.134426 8.393443-10.743607z m27.614426-158.182819c-0.318951 3.323803-0.839344 6.614033-1.275803 9.904262-0.621115 4.784262-1.309377 9.568525-2.182295 14.268852a291.537836 291.537836 0 0 1-9.43423 36.158951c-1.124721 3.357377-2.400525 6.664393-3.659541 9.954623-1.645115 4.297443-3.273443 8.594885-5.136787 12.808394-1.393311 3.139148-2.971279 6.194361-4.465311 9.26636-2.014426 4.129574-3.961705 8.309508-6.194361 12.338361-1.964066 3.525246-4.163148 6.882623-6.278295 10.323934-3.760262 6.127213-7.755541 12.086557-12.002623 17.911607-2.417311 3.307016-4.801049 6.647607-7.369443 9.853902h-192.545573c-9.081705 0-16.451148-7.369443-16.451148-17.122623a16.451148 16.451148 0 0 1 16.451148-16.451148h134.630819c27.580852 0 50.024918-22.444066 50.024918-50.696393 0-27.580852-22.444066-50.024918-50.696393-50.024918-9.081705 0-16.451148-7.369443-16.451148-17.122623a16.451148 16.451148 0 0 1 16.451148-16.451148h117.843934c0.016787 8.477377-0.48682 16.820459-1.259016 25.079607zM511.076721 782.940328c-148.093902 0-268.590164-120.496262-268.590164-268.590164h50.360656v-33.573771h-47.90977a269.782033 269.782033 0 0 1 52.54295-128.587541c1.29259-1.695475 2.518033-3.474885 3.844197-5.136786 3.072-3.87777 6.395803-7.554098 9.686033-11.264 2.484459-2.786623 4.918557-5.590033 7.520525-8.275935 2.836984-2.937705 5.825049-5.724328 8.813114-8.527738 2.199082-2.064787 4.431738-4.096 6.681181-6.076852h127.043147c9.081705 0 16.451148 7.369443 16.451148 17.122623a16.451148 16.451148 0 0 1-16.451148 16.451147h-34.245246c-27.580852 0-50.024918 22.444066-50.024918 50.696394a50.092066 50.092066 0 0 0 50.024918 50.024918h84.605902c9.081705 0 16.451148 7.369443 16.451147 17.122623a16.451148 16.451148 0 0 1-16.451147 16.451147h-117.843935v33.573771h117.843935c27.580852 0 50.024918-22.444066 50.024918-50.696394a50.092066 50.092066 0 0 0-50.024918-50.024918h-84.605902c-9.081705 0-16.451148-7.369443-16.451147-17.122622a16.451148 16.451148 0 0 1 16.451147-16.451148h34.245246c27.580852 0 50.024918-22.444066 50.024918-50.696393a50.092066 50.092066 0 0 0-50.024918-50.024919h-79.720918c38.492328-21.336131 82.692197-33.57377 129.745836-33.57377 136.712393 0 249.654557 102.735738 266.256787 235.016393h-115.510557c-27.580852 0-50.024918 22.444066-50.024918 50.696394 0 27.580852 22.444066 50.024918 50.696393 50.024918 9.081705 0 16.451148 7.369443 16.451148 17.122623a16.451148 16.451148 0 0 1-16.451148 16.451147h-134.63082c-27.580852 0-50.024918 22.444066-50.024918 50.696394a50.092066 50.092066 0 0 0 50.024918 50.024918h160.264394c-47.339016 41.648262-109.215475 67.147541-177.068066 67.147541z" fill="#000000" p-id="23097"></path><path d="M511.076721 94.678033m-67.147541 0a67.147541 67.147541 0 1 0 134.295082 0 67.147541 67.147541 0 1 0-134.295082 0Z" fill="#FF8000" p-id="23098"></path><path d="M511.076721 178.612459c-46.281443 0-83.934426-37.652984-83.934426-83.934426s37.652984-83.934426 83.934426-83.934426 83.934426 37.652984 83.934427 83.934426-37.652984 83.934426-83.934427 83.934426z m0-134.295082c-27.765508 0-50.360656 22.595148-50.360655 50.360656s22.595148 50.360656 50.360655 50.360656 50.360656-22.595148 50.360656-50.360656-22.595148-50.360656-50.360656-50.360656z" fill="#000000" p-id="23099"></path><path d="M494.524852 869.174557a67.013246 67.013246 0 0 0-50.595672 64.847738 67.147541 67.147541 0 0 0 67.147541 67.147541 66.979672 66.979672 0 0 0 64.847738-50.595672 83.665836 83.665836 0 0 1-81.399607-81.399607z" fill="#FF8000" p-id="23100"></path><path d="M511.076721 1017.956721c-46.281443 0-83.934426-37.652984-83.934426-83.934426a83.766557 83.766557 0 0 1 63.236197-81.114229c4.952131-1.225443 10.189639-0.201443 14.268852 2.870557a16.719738 16.719738 0 0 1 6.664394 12.925902 66.979672 66.979672 0 0 0 65.082754 65.082754 16.803672 16.803672 0 0 1 15.796459 20.933246 83.766557 83.766557 0 0 1-81.11423 63.236196z m-29.763147-124.357246a50.024918 50.024918 0 0 0-20.597508 40.42282c0 27.765508 22.595148 50.360656 50.360655 50.360656 16.333639 0 31.173246-7.940197 40.42282-20.597508a100.654164 100.654164 0 0 1-70.185967-70.185968zM494.289836 77.891148h33.573771v33.57377h-33.573771z" fill="#000000" p-id="23101"></path><path d="M24.257049 430.415738h167.868853v33.57377h-167.868853zM49.437377 497.563279h117.508197v33.57377h-117.508197zM74.617705 564.71082h67.147541v33.57377h-67.147541zM964.658361 514.350164h-67.819017a33.238033 33.238033 0 0 1-33.238033-33.238033v-0.671475a33.238033 33.238033 0 0 1 33.238033-33.238033h0.335738v-0.335738a33.238033 33.238033 0 0 1 33.238033-33.238033h0.671475a33.238033 33.238033 0 0 1 33.238033 33.238033v0.335738h0.335738a33.238033 33.238033 0 0 1 33.238032 33.238033v0.671475a33.238033 33.238033 0 0 1-33.238032 33.238033z" fill="#3EBBDD" p-id="23102"></path><path d="M964.658361 531.137049h-67.819017a50.092066 50.092066 0 0 1-50.024918-50.024918c0-23.165902 15.09141-42.420459 35.722492-48.61482a50.075279 50.075279 0 0 1 47.876197-35.655344c23.165902 0 42.420459 15.09141 48.614819 35.722492a50.075279 50.075279 0 0 1 35.655345 47.876197c0 28.252328-22.444066 50.696393-50.024918 50.696393z m-33.573771-100.721311c-9.75318 0-17.122623 7.369443-17.122623 16.451147 0 9.266361-7.520525 17.122623-16.786885 17.122623-9.417443 0-16.786885 7.369443-16.786885 16.451148 0 9.75318 7.369443 17.122623 16.451147 17.122623h67.819017a16.451148 16.451148 0 0 0 16.451147-16.451148c0-9.75318-7.369443-17.122623-16.451147-17.122623-9.266361 0-17.122623-7.520525-17.122623-16.786885 0-9.417443-7.369443-16.786885-16.451148-16.786885zM930.732066 665.432131a16.786885 16.786885 0 0 1-14.990689-24.290623l4.63318-9.283147h-23.199475a16.786885 16.786885 0 0 1-15.024262-24.290623l16.786885-33.573771a16.786885 16.786885 0 1 1 30.031738 15.024263l-4.633181 9.283147h23.199476a16.786885 16.786885 0 0 1 15.024262 24.290623l-16.786885 33.57377c-2.954492 5.87541-8.880262 9.266361-15.041049 9.266361z" fill="#000000" p-id="23103"></path></svg>