<?xml version="1.0" standalone="no"?><!DOCTYPE svg PUBLIC "-//W3C//DTD SVG 1.1//EN" "http://www.w3.org/Graphics/SVG/1.1/DTD/svg11.dtd"><svg t="1710299328612" class="icon" viewBox="0 0 1024 1024" version="1.1" xmlns="http://www.w3.org/2000/svg" p-id="8082" xmlns:xlink="http://www.w3.org/1999/xlink" width="200" height="200"><path d="M512 512m-512 0a512 512 0 1 0 1024 0 512 512 0 1 0-1024 0Z" fill="#3C76D9" p-id="8083"></path><path d="M642.004426 720.329532H595.445106l-5.381446-9.978553h-125.450894l-5.381447 9.978553H412.650213c-9.041702 0-16.318638 7.037277-16.318639 15.686808 0 8.627745 7.276936 15.665021 16.318639 15.665022h229.376c9.041702 0 16.340426-7.037277 16.340425-15.686809 0-8.627745-7.298723-15.665021-16.340425-15.665021z m94.425872-417.639489H318.246128c-27.01617 0-41.831489 15.425362-41.83149 41.373957v304.280511c0 25.948596 14.815319 41.286809 41.83149 41.286808H736.408511c27.01617 0 41.831489-15.338213 41.831489-41.330383V344.064c0-25.926809-14.815319-41.330383-41.787915-41.373957z" fill="#FFFFFF" p-id="8084"></path><path d="M657.887319 469.950638l-0.827915 1.002213-87.846127 98.042553a20.044255 20.044255 0 0 1-27.451915 1.65583l-63.72766-54.380936-49.239149 50.132425a21.482213 21.482213 0 0 1-29.434553 0.566468 18.214128 18.214128 0 0 1-0.39217-26.667574l66.472851-66.015319a19.020255 19.020255 0 0 1 25.75251-0.479319l62.965107 57.082553 72.420766-81.375319a21.068255 21.068255 0 0 1 28.323404-2.222298 16.035404 16.035404 0 0 1 2.984851 22.658723z" fill="#3C76D9" fill-opacity=".602" p-id="8085"></path></svg>