<?xml version="1.0" standalone="no"?><!DOCTYPE svg PUBLIC "-//W3C//DTD SVG 1.1//EN" "http://www.w3.org/Graphics/SVG/1.1/DTD/svg11.dtd"><svg t="1710983887207" class="icon" viewBox="0 0 1024 1024" version="1.1" xmlns="http://www.w3.org/2000/svg" p-id="13198" width="200" height="200" xmlns:xlink="http://www.w3.org/1999/xlink"><path d="M603.747 939.712v74.594c204.125-38.136 375.077-205.971 417.393-431.933h-74.476C910.952 748.359 781.3 892.505 603.747 939.712z" fill="#17abe3" p-id="13199"></path><path d="M855.34 517.545c0 188.376-154.253 341.486-344.042 341.486-189.791 0-344.044-153.11-344.044-341.486 0-188.377 153.39-341.49 344.044-341.49 190.652 0 344.042 153.113 344.042 341.49zM512.161 231.967c-159.452 0-288.579 128.164-288.579 286.439 0 158.267 129.127 286.435 288.579 286.435 159.458 0 288.585-128.168 288.585-286.435 0-158.271-129.127-286.439-288.585-286.439z" fill="#17abe3" p-id="13200"></path><path d="M946.664 443.602h74.476C978.824 217.64 807.872 49.638 603.747 11.67v74.593C781.3 133.471 910.952 277.616 946.664 443.602zM74.473 585.901H0c42.484 225.962 213.436 393.796 417.393 431.933V943.24c-177.384-47.208-307.205-191.355-342.92-357.339zM417.393 89.623V15.029C213.265 53.166 42.316 221 0 446.963h74.473c35.715-165.818 165.536-309.964 342.92-357.34z" fill="#17abe3" p-id="13201"></path></svg>