<?xml version="1.0" standalone="no"?><!DOCTYPE svg PUBLIC "-//W3C//DTD SVG 1.1//EN" "http://www.w3.org/Graphics/SVG/1.1/DTD/svg11.dtd"><svg t="1710983870167" class="icon" viewBox="0 0 1024 1024" version="1.1" xmlns="http://www.w3.org/2000/svg" p-id="13044" xmlns:xlink="http://www.w3.org/1999/xlink" width="200" height="200"><path d="M512 931.049813c115.720533 0 220.458667-46.877013 296.31488-122.733226S931.049813 627.720533 931.049813 512s-46.87872-220.506453-122.734933-296.31488C732.458667 139.8272 627.720533 92.950187 512 92.950187S291.493547 139.8272 215.68512 215.68512C139.828907 291.493547 92.950187 396.279467 92.950187 512c0 115.72224 46.880427 220.460373 122.734933 296.316587 75.808427 75.85792 180.596053 122.733227 296.31488 122.733226z m264.239787-154.80832c-67.631787 67.584-161.0496 109.42976-264.239787 109.42976s-196.608-41.849173-264.239787-109.42976c-67.584-67.633493-109.431467-161.0496-109.431466-264.241493 0-103.190187 41.797973-196.606293 109.431466-264.239787C315.392 180.174507 408.809813 138.328747 512 138.328747s196.608 41.847467 264.239787 109.42976c67.585707 67.633493 109.431467 161.0496 109.431466 264.239786 0 103.1936-41.847467 196.611413-109.431466 264.2432z" fill="#325DA8" p-id="13045"></path><path d="M512 795.979093c78.419627 0 149.39136-31.78496 200.768853-83.21024 51.426987-51.377493 83.21024-122.34752 83.21024-200.77056 0-78.419627-31.783253-149.389653-83.21024-200.81664-51.377493-51.377493-122.34752-83.162453-200.768853-83.162453s-149.39136 31.78496-200.81664 83.16416C259.805867 362.610347 228.022613 433.580373 228.022613 512s31.781547 149.39136 83.162454 200.77056c51.423573 51.423573 122.395307 83.208533 200.814933 83.208533z m179.0464-104.92928c-45.81376 45.81376-109.139627 74.1632-179.0464 74.1632s-133.23264-28.34944-179.0464-74.1632c-45.81376-45.817173-74.1632-109.141333-74.1632-179.048106 0-69.905067 28.34944-133.230933 74.1632-179.0464 45.81376-45.81376 109.139627-74.1632 179.0464-74.1632s133.23264 28.34944 179.0464 74.1632c45.81376 45.815467 74.1632 109.141333 74.1632 179.0464s-28.34944 133.230933-74.1632 179.048106z" fill="#325DA8" p-id="13046"></path><path d="M512 683.501227c47.361707 0 90.22464-19.20512 121.234773-50.26304 31.05792-31.013547 50.21696-73.873067 50.21696-121.23648 0-47.361707-19.15904-90.22464-50.21696-121.234774-31.010133-31.05792-73.873067-50.264747-121.234773-50.264746s-90.22464 19.206827-121.28256 50.264746c-31.010133 31.010133-50.21696 73.873067-50.21696 121.234774 0 47.363413 19.206827 90.222933 50.21696 121.23648 31.05792 31.05792 73.920853 50.26304 121.28256 50.26304z m108.125867-63.377067c-27.675307 27.675307-65.890987 44.798293-108.12416 44.798293s-80.453973-17.122987-108.12416-44.798293c-27.671893-27.671893-44.796587-65.887573-44.796587-108.12416 0-42.233173 17.124693-80.453973 44.796587-108.12416 27.6736-27.6736 65.890987-44.798293 108.12416-44.798293s80.452267 17.124693 108.12416 44.798293c27.671893 27.671893 44.750507 65.88928 44.750506 108.12416-0.001707 42.23488-17.078613 80.452267-44.750506 108.12416z" fill="#325DA8" p-id="13047"></path><path d="M512 593.565013c22.495573 0 42.912427-9.142613 57.66656-23.898453 14.754133-14.75584 23.898453-35.16928 23.898453-57.66656 0-22.54336-9.142613-42.912427-23.898453-57.66656-14.75584-14.75584-35.170987-23.898453-57.66656-23.898453-22.54336 0-42.912427 9.140907-57.66656 23.898453-14.75584 14.75584-23.898453 35.1232-23.898453 57.66656 0 22.49728 9.142613 42.912427 23.898453 57.66656 14.757547 14.752427 35.1232 23.898453 57.66656 23.898453z m51.42528-30.138026c-13.1584 13.1584-31.348053 21.287253-51.42528 21.287253s-38.26688-8.128853-51.42528-21.287253c-13.160107-13.1584-21.28896-31.34976-21.28896-51.426987 0-20.078933 8.128853-38.26688 21.28896-51.426987 13.1584-13.1584 31.348053-21.287253 51.42528-21.287253s38.26688 8.128853 51.42528 21.287253c13.160107 13.160107 21.287253 31.348053 21.287253 51.426987 0 20.07552-8.127147 38.268587-21.287253 51.426987z" fill="#325DA8" p-id="13048"></path><path d="M512 511.998293m-36.379307 0a36.379307 36.379307 0 1 0 72.758614 0 36.379307 36.379307 0 1 0-72.758614 0Z" fill="#325DA8" p-id="13049"></path></svg>