<?xml version="1.0" standalone="no"?><!DOCTYPE svg PUBLIC "-//W3C//DTD SVG 1.1//EN" "http://www.w3.org/Graphics/SVG/1.1/DTD/svg11.dtd"><svg t="1710313744140" class="icon" viewBox="0 0 1024 1024" version="1.1" xmlns="http://www.w3.org/2000/svg" p-id="19051" xmlns:xlink="http://www.w3.org/1999/xlink" width="200" height="200"><path d="M853.333333 1024H170.666667c-93.866667 0-170.666667-76.8-170.666667-170.666667V170.666667C0 76.8 76.8 0 170.666667 0h682.666666c93.866667 0 170.666667 76.8 170.666667 170.666667v682.666666c0 93.866667-76.8 170.666667-170.666667 170.666667z" fill="#22B1FD" p-id="19052"></path><path d="M512 802.133333c-17.066667 0-30.72-5.973333-42.666667-17.066666-11.946667-11.946667-17.92-25.6-17.92-40.96h119.466667c0 17.066667-5.973333 30.72-17.066667 41.813333C542.72 796.16 529.066667 802.133333 512 802.133333z m179.2-325.973333v147.626667l60.586667 59.733333v29.013333H272.213333v-29.013333l60.586667-59.733333V476.16c0-46.08 11.946667-87.04 35.84-121.173333 23.893333-34.133333 57.173333-57.173333 98.986667-66.56v-21.333334c0-11.946667 4.266667-22.186667 12.8-31.573333 8.533333-8.533333 18.773333-13.653333 32.426666-12.8 12.8 0 23.893333 4.266667 32.426667 12.8s12.8 19.626667 12.8 31.573333v21.333334c41.813333 10.24 75.093333 32.426667 98.986667 66.56 22.186667 34.133333 34.133333 74.24 34.133333 121.173333z m58.88-15.36c-4.266667-80.213333-40.106667-143.36-104.96-191.146667l41.813333-41.813333c77.653333 59.733333 118.613333 137.386667 123.733334 232.96h-60.586667zM380.586667 269.653333C314.026667 315.733333 278.186667 379.733333 273.92 460.8H213.333333c4.266667-95.573333 46.08-173.226667 123.733334-232.96l43.52 41.813333z m0 0" fill="#FFFFFF" p-id="19053"></path></svg>