<?xml version="1.0" standalone="no"?><!DOCTYPE svg PUBLIC "-//W3C//DTD SVG 1.1//EN" "http://www.w3.org/Graphics/SVG/1.1/DTD/svg11.dtd"><svg t="1710727480069" class="icon" viewBox="0 0 1024 1024" version="1.1" xmlns="http://www.w3.org/2000/svg" p-id="1742" xmlns:xlink="http://www.w3.org/1999/xlink" width="200" height="200"><path d="M-34.13333333-34.13333333h1092.26666666v1092.26666666H-34.13333333z" fill="#1296db" fill-opacity=".01" p-id="1743"></path><path d="M216.37802667 629.91018667a40.96 40.96 0 0 1-23.10144 53.08416c-58.60010667 23.15605333-87.49056 49.26122667-87.49056 66.51904 0 26.37824 45.65674667 55.54176 119.71242666 78.09706666l21.89994667 6.28053334 23.37450667 5.89824c32.05802667 7.48202667 67.77514667 13.81717333 106.22293333 18.35008l29.27274667 3.11296a1190.18837333 1190.18837333 0 0 0 218.23488 0l29.27274666-3.11296c4.80597333-0.54613333 9.55733333-1.14688 14.25408-1.80224l27.74357334-4.04138667c22.66453333-3.60448 44.12757333-7.80970667 64.22528-12.56106667l23.31989333-5.84362666c86.8352-23.26528 141.66698667-55.48714667 141.66698667-84.3776 0-15.89248-24.84906667-39.86773333-76.62250667-61.98613334a40.96 40.96 0 0 1 32.22186667-75.3664c78.69781333 33.75104 126.32064 79.57162667 126.32064 137.35253334 0 121.40544-220.74709333 198.62869333-491.52 198.62869333-270.82752 0-491.52-77.22325333-491.52-198.62869333 0-60.89386667 52.70186667-108.51669333 139.37322666-142.70464a40.96 40.96 0 0 1 53.13877334 23.10144z m258.048-533.73610667a40.96 40.96 0 0 1 54.8864-38.5024l217.79797333 78.80704a40.96 40.96 0 0 1 26.97898667 38.55701333v551.92234667a40.96 40.96 0 0 1-40.96 40.96H295.34890667a40.96 40.96 0 0 1-40.96-40.96V351.4368a40.96 40.96 0 0 1 27.68896-38.77546667l192.34816-65.69984zM474.3168 333.63285333l-138.11712 47.13130667v305.17930667h138.11712V333.63285333z m81.92-179.13173333v531.44234667h135.87797333v-482.23573334l-135.87797333-49.20661333z" fill="#1296db" p-id="1744"></path></svg>