<?xml version="1.0" standalone="no"?><!DOCTYPE svg PUBLIC "-//W3C//DTD SVG 1.1//EN" "http://www.w3.org/Graphics/SVG/1.1/DTD/svg11.dtd"><svg t="1709688223303" class="icon" viewBox="0 0 1024 1024" version="1.1" xmlns="http://www.w3.org/2000/svg" p-id="18933" xmlns:xlink="http://www.w3.org/1999/xlink" width="200" height="200"><path d="M787.99 521.6c28.46 54.65-85 169.7-160.17 227.88-100.02 77.4-225.96 125.96-241.09 104.03-6.06-8.79 10.46-23.99 49.54-84.22 57.37-88.42 98.17-151.3 78.16-183.29-9.76-15.6-35.13-18.84-85.87-25.32-25.43-3.25-40.82-2.81-106.78-3.3-77.85-0.58-82.18-1.38-85.74-5.8-24.89-30.85 56.89-152.06 155.64-239.69C511.23 205.81 652.9 151.41 664.14 168.23c6.33 9.47-34.6 32.6-69.35 97.42-7.91 14.76-69.83 130.28-29.72 191.55 46.91 71.68 193.94 8.75 222.92 64.4z" fill="#D74965" p-id="18934"></path><path d="M512 96.01c229.75 0 416 186.25 416 415.99 0 229.75-186.25 416-416 416S96 741.75 96 512C96 282.26 282.25 96.01 512 96.01z m115.82 653.47c75.17-58.18 188.63-173.23 160.17-227.88-28.98-55.65-176.01 7.28-222.92-64.4-40.11-61.27 21.81-176.79 29.72-191.55 34.75-64.82 75.68-87.95 69.35-97.42-11.24-16.82-152.91 37.58-272.46 143.66-98.75 87.63-180.53 208.84-155.64 239.69 3.56 4.42 7.89 5.22 85.74 5.8 65.96 0.49 81.35 0.05 106.78 3.3 50.74 6.48 76.11 9.72 85.87 25.32 20.01 31.99-20.79 94.87-78.16 183.29-39.08 60.23-55.6 75.43-49.54 84.22 15.13 21.93 141.07-26.63 241.09-104.03z" fill="#BBE0E9" p-id="18935"></path></svg>