<?xml version="1.0" standalone="no"?><!DOCTYPE svg PUBLIC "-//W3C//DTD SVG 1.1//EN" "http://www.w3.org/Graphics/SVG/1.1/DTD/svg11.dtd"><svg t="1709687264095" class="icon" viewBox="0 0 1024 1024" version="1.1" xmlns="http://www.w3.org/2000/svg" p-id="6264" xmlns:xlink="http://www.w3.org/1999/xlink" width="200" height="200"><path d="M512 512m-512 0a512 512 0 1 0 1024 0 512 512 0 1 0-1024 0Z" fill="#3EACEC" p-id="6265"></path><path d="M362.673231 339.692308a45.961846 45.961846 0 1 0 91.943384 0 45.961846 45.961846 0 0 0-91.963077 0zM577.358769 523.500308h-53.858461v0.059077l35.367384 35.387077a66.875077 66.875077 0 0 0 18.491077-35.446154z m111.261539 0a176.502154 176.502154 0 0 1-51.515077 113.664l-62.72-62.72a88.300308 88.300308 0 0 0 25.048615-50.944h89.166769z m110.749538 0h-88.615384a198.518154 198.518154 0 0 1-57.93477 129.319384l62.503385 62.503385a287.153231 287.153231 0 0 0 84.046769-191.822769z m22.508308 0a309.070769 309.070769 0 0 1-90.624 207.832615l-0.196923-0.216615a308.893538 308.893538 0 0 0 90.466461-207.616h0.354462zM558.867692 465.132308l-35.367384 35.367384h53.858461a66.422154 66.422154 0 0 0-18.491077-35.367384z m78.237539-78.237539a176.482462 176.482462 0 0 1 51.495384 113.624616H599.433846a88.32 88.32 0 0 0-25.048615-50.904616l62.72-62.72z m78.217846-78.217846l-62.503385 62.503385a198.183385 198.183385 0 0 1 57.93477 129.319384h88.615384a287.153231 287.153231 0 0 0-84.046769-191.822769z m15.931077-15.931077a309.169231 309.169231 0 0 1 90.624 207.753846h-0.413539a308.834462 308.834462 0 0 0-90.486153-207.556923l0.275692-0.196923z" fill="#FFFFFF" p-id="6266"></path><path d="M523.421538 799.369846v-88.615384a199.010462 199.010462 0 0 0 129.319385-57.93477l-15.714461-15.714461a176.462769 176.462769 0 0 1-113.604924 51.495384v-89.00923a88.004923 88.004923 0 0 0 50.884924-25.147077l-15.497847-15.497846c-9.432615 9.472-21.661538 16.128-35.387077 18.471384v-53.917538L512 512l11.500308-11.500308v-53.917538c13.705846 2.422154 25.954462 9.058462 35.367384 18.550154l15.517539-15.517539a88.182154 88.182154 0 0 0-50.884923-25.127384v-89.16677a176.462769 176.462769 0 0 1 113.604923 51.515077l15.714461-15.714461a198.793846 198.793846 0 0 0-129.319384-57.895385v-88.615384a286.897231 286.897231 0 0 1 191.822769 84.125538l15.714461-15.714462a308.578462 308.578462 0 0 0-207.556923-90.54523v-0.630154h-22.980923v0.630154c-162.067692 5.947077-292.135385 135.955692-298.102154 298.023384h-0.551384v22.921846h0.551384c5.966769 162.067692 136.034462 292.155077 298.102154 298.102154v0.492308h22.921846v-0.492308a308.913231 308.913231 0 0 0 207.556924-90.54523l-15.714462-15.714462a286.759385 286.759385 0 0 1-191.842462 84.105846z m-22.921846-574.739692v88.615384a200.270769 200.270769 0 0 0-49.289846 9.137231 45.095385 45.095385 0 0 1 3.131077 22.212923 175.950769 175.950769 0 0 1 46.158769-9.255384v89.206154a88.221538 88.221538 0 0 0-76.012307 76.012307h-89.16677a176.423385 176.423385 0 0 1 56.221539-118.153846 46.08 46.08 0 0 1-18.274462-13.292308 198.340923 198.340923 0 0 0-60.100923 131.387077h-88.615384c5.966769-149.602462 126.345846-269.981538 275.948307-275.88923z m0 574.818461c-149.602462-5.966769-269.981538-126.345846-275.948307-275.948307h88.615384a199.049846 199.049846 0 0 0 187.332923 187.332923v88.615384z m0-110.76923a177.309538 177.309538 0 0 1-165.179077-165.179077h89.16677a88.300308 88.300308 0 0 0 76.012307 76.071384v89.107693z m0-111.261539a66.56 66.56 0 0 1-53.858461-53.996308h53.858461v53.996308z m0.07877-76.918154h-53.858462a66.56 66.56 0 0 1 53.858462-53.917538v53.917538z" fill="#FFFFFF" p-id="6267"></path><path d="M451.209846 322.363077a199.069538 199.069538 0 0 0-77.883077 46.749538c4.844308 5.809231 11.145846 10.436923 18.274462 13.292308a177.644308 177.644308 0 0 1 62.739692-37.730461 46.513231 46.513231 0 0 0-3.111385-22.291693z m370.944 178.136615h-0.275692c0.275692 7.620923 0.275692 15.300923 0 23.000616h0.275692v-23.000616z" fill="#FFFFFF" p-id="6268"></path><path d="M731.037538 292.962462l-15.714461 15.714461a286.818462 286.818462 0 0 1 84.046769 191.822769h-88.615384a199.010462 199.010462 0 0 0-57.93477-129.319384l-15.714461 15.714461a176.462769 176.462769 0 0 1 51.495384 113.624616H599.433846a88.32 88.32 0 0 0-25.048615-50.904616l-15.517539 15.517539a66.56 66.56 0 0 1 18.412308 35.367384H523.421538L512 512l11.500308 11.500308v-0.07877h53.858461a66.500923 66.500923 0 0 1-18.412307 35.446154l15.497846 15.517539a88.280615 88.280615 0 0 0 25.068307-50.963693h89.16677a176.482462 176.482462 0 0 1-51.515077 113.683693l15.714461 15.714461a198.183385 198.183385 0 0 0 57.954462-129.319384h88.615384a286.995692 286.995692 0 0 1-84.046769 191.822769l15.714462 15.714461a308.873846 308.873846 0 0 0 90.486154-207.616h0.413538c0.275692-7.620923 0.275692-15.300923 0-22.980923h-0.413538a309.188923 309.188923 0 0 0-90.564924-207.478153z" fill="#FFFFFF" p-id="6269"></path><path d="M615.364923 638.345846a45.981538 45.981538 0 1 0 91.943385 0 45.981538 45.981538 0 0 0-91.963077 0z" fill="#FFFFFF" p-id="6270"></path></svg>